<?xml version="1.0" standalone="no"?>
<!DOCTYPE svg PUBLIC "-//W3C//DTD SVG 20010904//EN"
 "http://www.w3.org/TR/2001/REC-SVG-20010904/DTD/svg10.dtd">
<svg version="1.0" xmlns="http://www.w3.org/2000/svg"
 width="600.000000pt" height="600.000000pt" viewBox="0 0 600.000000 600.000000"
 preserveAspectRatio="xMidYMid meet">

<g transform="translate(0.000000,600.000000) scale(0.100000,-0.100000)"
fill="#000000" stroke="none">
<path d="M3177 4663 c-13 -12 -7 -22 23 -36 l29 -15 -21 29 c-25 33 -22 31
-31 22z"/>
<path d="M3567 4453 c10 -15 36 -54 58 -85 21 -32 40 -58 42 -58 11 0 0 32
-22 64 -14 21 -20 34 -13 30 8 -5 7 1 -3 16 -9 14 -31 33 -48 43 l-33 18 19
-28z"/>
<path d="M3396 4382 c1 -31 8 -77 14 -102 6 -25 14 -55 17 -68 8 -34 24 -37
21 -5 -4 58 2 99 12 83 5 -8 12 -12 15 -8 7 7 -59 143 -73 152 -5 3 -8 -20 -6
-52z"/>
<path d="M3247 4266 c15 -18 31 -31 36 -29 8 4 -46 63 -58 63 -4 0 6 -15 22
-34z"/>
<path d="M3290 4221 c0 -7 9 -24 20 -38 18 -23 20 -24 20 -6 0 11 -9 28 -20
38 -13 12 -20 14 -20 6z"/>
<path d="M2182 4185 c-6 -14 -7 -25 -2 -25 9 0 25 39 18 46 -3 2 -10 -7 -16
-21z"/>
<path d="M2167 4143 c-4 -3 -7 -13 -7 -22 1 -13 3 -13 11 2 11 19 8 33 -4 20z"/>
<path d="M3671 4134 c0 -11 3 -14 6 -6 3 7 2 16 -1 19 -3 4 -6 -2 -5 -13z"/>
<path d="M3690 4131 c0 -12 5 -21 10 -21 6 0 10 6 10 14 0 8 -4 18 -10 21 -5
3 -10 -3 -10 -14z"/>
<path d="M3806 4110 c7 -40 39 -105 54 -115 6 -4 15 -18 20 -31 6 -14 17 -24
27 -23 17 1 17 2 1 6 -10 2 -18 13 -18 24 0 24 -43 114 -71 149 l-20 25 7 -35z"/>
<path d="M3625 4101 c-11 -5 -24 -6 -30 -3 -7 3 -7 1 0 -5 12 -12 75 -5 75 8
0 11 -18 11 -45 0z"/>
<path d="M3461 3934 c0 -11 3 -14 6 -6 3 7 2 16 -1 19 -3 4 -6 -2 -5 -13z"/>
<path d="M2110 3931 c0 -10 19 -25 25 -20 1 2 -3 10 -11 17 -8 7 -14 8 -14 3z"/>
<path d="M3841 3904 c0 -11 3 -14 6 -6 3 7 2 16 -1 19 -3 4 -6 -2 -5 -13z"/>
<path d="M2015 3890 c-3 -5 -1 -10 4 -10 6 0 11 5 11 10 0 6 -2 10 -4 10 -3 0
-8 -4 -11 -10z"/>
<path d="M3780 3890 c0 -5 5 -10 10 -10 6 0 10 5 10 10 0 6 -4 10 -10 10 -5 0
-10 -4 -10 -10z"/>
<path d="M3910 3896 c0 -15 61 -116 71 -116 13 0 5 50 -15 89 -14 26 -20 31
-27 20 -8 -12 -11 -12 -19 1 -5 8 -10 11 -10 6z"/>
<path d="M3795 3770 c-16 -7 -17 -9 -3 -9 9 -1 20 4 23 9 7 11 7 11 -20 0z"/>
<path d="M3880 3771 c0 -18 18 -21 30 -6 10 13 9 15 -9 15 -11 0 -21 -4 -21
-9z"/>
<path d="M3930 3762 c0 -5 11 -19 26 -33 22 -21 24 -21 18 -4 -12 32 -44 58
-44 37z"/>
<path d="M3835 3750 c-3 -5 -1 -10 4 -10 6 0 11 5 11 10 0 6 -2 10 -4 10 -3 0
-8 -4 -11 -10z"/>
<path d="M3760 3740 c0 -5 6 -10 14 -10 8 0 18 5 21 10 3 6 -3 10 -14 10 -12
0 -21 -4 -21 -10z"/>
<path d="M3870 3698 c0 -10 -9 -32 -20 -50 -30 -50 -26 -174 5 -148 11 9 55
-3 93 -26 12 -7 -13 -44 -29 -44 -28 0 -23 -20 6 -21 46 -3 50 -4 49 -16 -1
-7 -2 -20 -2 -28 -1 -9 -12 -15 -27 -15 -19 0 -25 5 -25 21 0 16 -4 19 -20 14
-11 -4 -20 -2 -20 4 0 6 -12 11 -26 11 -20 0 -25 -4 -20 -16 3 -9 6 -18 6 -20
0 -2 5 -4 12 -4 6 0 19 -7 29 -16 23 -21 72 -21 103 0 21 13 26 25 26 56 0 21
4 41 9 44 16 11 -4 202 -26 241 -5 7 -8 -27 -9 -75 -1 -95 -12 -123 -47 -118
-11 2 -29 15 -40 30 -18 25 -19 28 -3 59 18 37 21 59 6 59 -5 0 -10 -9 -10
-20 0 -11 -4 -20 -10 -20 -12 0 -13 16 -1 56 5 18 5 37 0 45 -7 11 -9 10 -9
-3z"/>
<path d="M3930 3690 c-13 -8 -12 -10 3 -10 9 0 17 5 17 10 0 12 -1 12 -20 0z"/>
<path d="M1988 3363 c6 -2 18 -2 25 0 6 3 1 5 -13 5 -14 0 -19 -2 -12 -5z"/>
<path d="M2132 3351 c-20 -12 37 -21 122 -20 l71 2 -70 7 c-38 3 -79 9 -90 13
-11 4 -26 3 -33 -2z"/>
<path d="M1985 3340 c3 -5 13 -10 21 -10 8 0 14 5 14 10 0 6 -9 10 -21 10 -11
0 -17 -4 -14 -10z"/>
<path d="M2088 3343 c7 -3 16 -2 19 1 4 3 -2 6 -13 5 -11 0 -14 -3 -6 -6z"/>
<path d="M1900 3250 c0 -5 5 -10 10 -10 6 0 10 5 10 10 0 6 -4 10 -10 10 -5 0
-10 -4 -10 -10z"/>
<path d="M2104 3228 c-12 -5 -29 -25 -38 -44 -22 -48 -19 -57 4 -12 26 48 75
64 128 42 19 -8 37 -12 40 -10 7 7 -68 36 -92 35 -11 0 -30 -5 -42 -11z"/>
<path d="M2164 3188 c-8 -12 -5 -14 28 -22 37 -9 43 8 7 21 -18 7 -31 8 -35 1z"/>
<path d="M3021 3190 c-25 -5 -48 -11 -53 -12 -4 -2 86 -3 201 -3 135 0 202 3
188 9 -31 13 -283 17 -336 6z"/>
<path d="M2130 3180 c0 -5 -7 -7 -15 -4 -9 4 -15 0 -15 -10 0 -19 9 -20 33 -2
19 15 22 26 7 26 -5 0 -10 -4 -10 -10z"/>
<path d="M2236 3162 c-3 -6 -1 -14 5 -17 15 -10 25 3 12 16 -7 7 -13 7 -17 1z"/>
<path d="M2305 3150 c10 -11 20 -20 23 -20 3 0 -3 9 -13 20 -10 11 -20 20 -23
20 -3 0 3 -9 13 -20z"/>
<path d="M2927 3163 c-4 -3 -7 -41 -7 -84 l0 -77 53 -19 c75 -26 299 -25 377
3 l55 19 3 74 c2 44 -1 78 -8 85 -8 8 -9 -7 -4 -55 9 -94 2 -103 -93 -117
-135 -21 -321 -10 -360 21 -17 12 -17 129 -1 145 7 7 8 12 2 12 -6 0 -14 -3
-17 -7z"/>
<path d="M2063 3116 c-17 -35 -23 -64 -23 -116 0 -40 -4 -70 -10 -70 -5 0 -10
-4 -10 -9 0 -5 9 -7 21 -4 19 5 21 11 15 54 -4 29 -3 49 3 49 5 0 14 14 20 31
15 43 12 51 -4 14 -9 -20 -14 -24 -15 -12 0 10 7 32 16 48 8 17 14 37 12 46
-2 9 -13 -5 -25 -31z"/>
<path d="M2115 3130 l-20 -23 32 17 c43 21 54 20 99 -10 l39 -26 -26 27 c-37
38 -97 45 -124 15z"/>
<path d="M2270 3131 c0 -17 12 -41 21 -41 5 0 9 11 9 25 0 16 -6 25 -15 25 -8
0 -15 -4 -15 -9z"/>
<path d="M3185 3130 c-3 -5 3 -10 14 -10 12 0 21 5 21 10 0 6 -6 10 -14 10 -8
0 -18 -4 -21 -10z"/>
<path d="M3344 3100 c-7 -44 -7 -50 3 -51 5 0 32 71 33 89 0 1 -7 2 -15 2 -9
0 -17 -14 -21 -40z"/>
<path d="M2035 3119 c-4 -6 -5 -12 -2 -15 2 -3 7 2 10 11 7 17 1 20 -8 4z"/>
<path d="M3232 3108 c-14 -14 -16 -68 -2 -68 6 0 10 11 10 24 0 14 5 28 10 31
12 7 13 25 2 25 -4 0 -13 -5 -20 -12z"/>
<path d="M2968 3099 c-10 -5 -18 -21 -18 -34 0 -19 5 -25 23 -25 16 0 19 3 8
9 -19 12 -6 42 15 34 11 -4 15 -2 12 7 -6 18 -19 21 -40 9z"/>
<path d="M3025 3090 c-22 -24 -13 -50 17 -50 18 0 20 2 8 10 -13 8 -12 11 4
23 11 8 16 19 12 25 -10 17 -20 15 -41 -8z"/>
<path d="M3187 3103 c-2 -5 -7 -20 -11 -35 -5 -21 -3 -28 9 -28 8 0 15 6 15
13 0 6 3 22 6 35 6 20 -9 32 -19 15z"/>
<path d="M3272 3098 c-7 -7 -12 -22 -12 -35 0 -19 5 -23 30 -23 28 0 30 3 30
35 0 27 -4 35 -18 35 -10 0 -23 -5 -30 -12z m28 -17 c0 -6 -4 -13 -10 -16 -5
-3 -10 1 -10 9 0 9 5 16 10 16 6 0 10 -4 10 -9z"/>
<path d="M2017 3071 c-4 -17 -3 -21 5 -13 5 5 8 16 6 23 -3 8 -7 3 -11 -10z"/>
<path d="M2310 3069 c0 -5 -5 -7 -11 -3 -11 6 -8 -10 12 -63 13 -35 17 -28 16
27 -1 27 -5 50 -9 50 -5 0 -8 -5 -8 -11z"/>
<path d="M2108 3053 c10 -4 10 -8 1 -19 -9 -11 -6 -14 20 -14 18 0 31 5 31 13
0 8 3 7 10 -3 5 -8 17 -16 27 -16 10 -1 25 -3 33 -5 9 -3 16 4 18 17 3 19 -3
22 -50 27 -62 8 -109 8 -90 0z"/>
<path d="M2123 2975 c4 -33 8 -36 56 -41 40 -5 41 -4 41 24 0 36 -27 50 -46
25 -13 -17 -13 -17 -14 0 0 10 -8 17 -20 17 -16 0 -20 -5 -17 -25z m87 -15 c0
-5 -4 -10 -10 -10 -5 0 -10 5 -10 10 0 6 5 10 10 10 6 0 10 -4 10 -10z"/>
<path d="M2313 2950 c-2 -29 14 -34 19 -5 3 15 1 25 -6 25 -7 0 -12 -9 -13
-20z"/>
<path d="M2110 2919 c0 -8 26 -19 46 -19 27 0 14 18 -16 22 -16 3 -30 1 -30
-3z"/>
<path d="M2060 2893 c0 -7 4 -13 9 -13 5 0 11 6 14 13 3 8 -1 14 -9 14 -8 0
-14 -6 -14 -14z"/>
<path d="M2190 2900 c0 -5 12 -10 26 -10 14 0 23 4 19 10 -3 6 -15 10 -26 10
-10 0 -19 -4 -19 -10z"/>
<path d="M3193 2893 c-50 -17 -121 -78 -161 -137 -37 -55 -63 -130 -97 -281
-23 -101 -26 -138 -23 -230 4 -126 19 -163 75 -193 31 -17 119 -15 153 3 31
16 40 35 16 35 -8 0 -28 16 -44 34 -22 26 -32 49 -37 88 -8 66 8 228 30 305
45 154 77 244 111 306 20 38 32 72 28 77 -5 4 -28 1 -51 -7z"/>
<path d="M2307 2893 c-4 -3 -7 -14 -7 -23 0 -25 -37 -68 -62 -72 -29 -4 -36
-28 -8 -28 12 0 18 4 15 10 -3 5 0 8 7 5 17 -6 66 37 78 69 9 24 -8 54 -23 39z"/>
<path d="M2250 2850 c-18 -25 -85 -28 -94 -5 -3 8 -10 15 -16 15 -19 0 13 -39
37 -45 30 -7 93 20 93 39 0 21 -3 20 -20 -4z"/>
<path d="M2100 2856 c0 -1 5 -17 11 -34 11 -33 36 -49 53 -32 8 8 4 12 -11 16
-12 3 -24 17 -27 30 -4 13 -11 24 -16 24 -6 0 -10 -2 -10 -4z"/>
<path d="M2082 2815 c0 -16 2 -22 5 -12 2 9 2 23 0 30 -3 6 -5 -1 -5 -18z"/>
<path d="M3323 2810 c-38 -23 -53 -48 -53 -89 0 -68 47 -108 106 -92 44 11 67
51 65 112 -1 85 -48 112 -118 69z"/>
<path d="M2315 2790 c-12 -19 -89 -50 -124 -50 -20 0 -51 9 -70 21 -43 26 -52
18 -12 -11 50 -35 93 -37 155 -5 30 15 57 34 60 41 6 16 0 19 -9 4z"/>
<path d="M3960 2760 c0 -6 -11 -15 -25 -20 -22 -8 -25 -15 -25 -59 0 -61 29
-106 53 -81 8 8 17 44 20 80 l6 65 -17 -54 -17 -54 -18 26 c-20 31 -24 58 -5
39 17 -17 25 -15 31 11 2 12 8 30 12 40 4 10 3 17 -4 17 -6 0 -11 -5 -11 -10z"/>
<path d="M2561 2669 c-65 -13 -128 -47 -157 -85 -28 -36 -54 -145 -54 -224 0
-47 19 -132 38 -166 19 -36 80 -93 131 -124 45 -26 62 -30 125 -30 68 0 77 3
132 38 62 40 90 74 105 125 13 46 1 51 -41 17 -81 -64 -165 -84 -241 -58 -35
12 -72 45 -64 58 3 4 19 10 36 14 46 9 146 60 203 104 72 54 91 84 91 142 0
122 -155 219 -304 189z m133 -140 c37 -29 33 -56 -15 -100 -41 -38 -138 -79
-186 -79 -20 0 -23 5 -23 37 0 50 36 121 74 144 43 26 115 25 150 -2z"/>
<path d="M3635 2663 c-103 -23 -164 -66 -228 -163 -35 -52 -37 -58 -37 -140 0
-126 45 -212 138 -267 37 -22 52 -25 111 -21 56 3 75 9 105 31 20 16 36 34 36
42 0 7 3 15 8 17 16 7 61 89 76 138 9 30 16 76 16 103 0 70 -19 178 -37 205
-28 45 -117 71 -188 55z m140 -143 c12 -14 20 -41 23 -79 4 -50 0 -68 -31
-132 -37 -80 -79 -132 -114 -143 -32 -10 -98 27 -132 74 -41 56 -55 121 -41
181 19 77 36 90 129 98 44 4 83 10 87 14 15 14 61 6 79 -13z"/>
<path d="M3683 2483 c-22 -8 -14 -25 8 -18 34 11 59 -20 60 -74 0 -39 2 -42
10 -23 11 28 -4 101 -23 113 -14 9 -36 10 -55 2z"/>
<path d="M3552 2464 c-12 -8 -22 -25 -21 -37 l0 -22 11 23 c11 21 20 25 61 25
13 0 15 3 6 13 -15 18 -29 18 -57 -2z"/>
<path d="M3730 2324 c0 -5 -15 -26 -32 -46 -24 -27 -43 -38 -68 -40 l-35 -4
28 -8 c18 -6 36 -4 50 3 24 13 72 89 63 99 -3 3 -6 1 -6 -4z"/>
<path d="M3892 2599 c6 -16 12 -28 15 -26 7 7 -8 57 -18 57 -4 0 -3 -14 3 -31z"/>
<path d="M2078 2613 c6 -2 18 -2 25 0 6 3 1 5 -13 5 -14 0 -19 -2 -12 -5z"/>
<path d="M2130 2610 c0 -5 5 -10 11 -10 5 0 7 5 4 10 -3 6 -8 10 -11 10 -2 0
-4 -4 -4 -10z"/>
<path d="M3253 2560 c-31 -19 -66 -66 -91 -123 -17 -40 -15 -177 4 -234 20
-59 56 -108 94 -128 28 -15 111 -21 123 -9 3 3 -9 27 -27 52 -71 101 -83 256
-30 386 13 33 24 63 24 68 0 15 -65 8 -97 -12z"/>
<path d="M3953 2566 c-13 -6 -23 -14 -23 -18 0 -14 17 -8 35 12 20 22 20 22
-12 6z"/>
<path d="M2068 2553 c6 -2 18 -2 25 0 6 3 1 5 -13 5 -14 0 -19 -2 -12 -5z"/>
<path d="M2055 2500 c-3 -11 -3 -30 0 -41 4 -13 2 -25 -5 -29 -7 -4 -11 -13
-8 -20 3 -9 9 -8 21 4 14 15 17 15 17 2 0 -16 18 -31 27 -22 3 3 0 12 -6 20
-10 11 -9 21 3 45 17 33 21 65 7 57 -4 -3 -12 -20 -16 -38 l-7 -33 -11 24 c-9
19 -9 25 1 29 17 5 15 22 -2 22 -8 0 -18 -9 -21 -20z"/>
<path d="M3985 2320 c-3 -5 -1 -10 4 -10 6 0 11 5 11 10 0 6 -2 10 -4 10 -3 0
-8 -4 -11 -10z"/>
<path d="M3913 2298 c-23 -26 -73 -110 -73 -123 0 -9 86 99 101 127 14 25 -4
22 -28 -4z"/>
<path d="M3960 2286 c0 -8 -4 -16 -8 -18 -8 -3 -49 -105 -57 -141 -9 -40 -17
-57 -26 -57 -5 0 -9 7 -9 15 0 8 -4 15 -9 15 -15 0 -23 -18 -11 -25 5 -3 10
-12 10 -18 0 -7 -4 -6 -10 3 -9 13 -13 11 -30 -10 -11 -14 -23 -34 -26 -44 -3
-10 -28 -53 -54 -95 -42 -65 -50 -88 -60 -159 -7 -46 -10 -86 -6 -89 10 -10
126 26 203 63 74 36 123 81 123 114 0 10 5 22 10 25 6 4 9 51 9 113 -1 59 -4
95 -6 79 -7 -48 -23 -18 -23 44 0 36 -4 59 -11 59 -12 0 -8 76 6 118 5 14 3
22 -4 22 -6 0 -11 -6 -11 -14z m19 -382 c19 12 23 -21 5 -43 -21 -24 -34 -19
-27 9 3 11 1 20 -5 20 -5 0 -13 -11 -16 -25 -4 -14 -13 -25 -21 -25 -22 0 -18
14 11 50 19 22 29 28 34 19 4 -6 13 -8 19 -5z m-83 -121 c-11 -11 -19 6 -11
24 8 17 8 17 12 0 3 -10 2 -21 -1 -24z m-31 17 c3 -5 -1 -10 -9 -10 -9 0 -16
5 -16 10 0 6 4 10 9 10 6 0 13 -4 16 -10z"/>
<path d="M2058 2227 c-8 -6 -28 -30 -44 -51 l-29 -39 2 -160 c2 -88 5 -168 8
-177 6 -20 88 -59 189 -89 82 -25 76 -25 76 -2 0 11 9 21 21 24 12 3 18 10 14
16 -3 6 -11 9 -16 6 -5 -4 -9 0 -9 8 0 8 6 17 14 20 8 3 16 18 18 34 3 26 6
28 38 24 42 -4 50 -14 50 -66 0 -38 2 -41 51 -62 27 -13 47 -27 44 -33 -10
-16 -24 -12 -47 15 -24 28 -43 33 -34 10 3 -10 -3 -17 -20 -21 -34 -9 -25 -14
48 -29 67 -14 80 -13 71 10 -3 9 1 23 8 31 12 14 11 19 -9 32 -32 21 -27 35 7
18 24 -13 28 -21 28 -56 0 -48 -1 -46 43 -55 l35 -6 -34 30 c-34 31 -23 43 13
16 49 -37 136 3 136 61 0 23 -3 26 -26 21 -15 -3 -43 2 -63 10 -28 12 -39 13
-54 3 -10 -6 -20 -10 -21 -8 -1 2 -7 15 -13 29 -9 21 -21 28 -59 34 -54 8
-131 42 -138 62 -8 20 28 16 41 -6 13 -20 53 -35 53 -19 0 18 -23 92 -32 105
-5 6 -16 9 -25 6 -16 -6 -33 12 -33 37 0 8 17 23 38 32 l37 18 -50 -4 c-48 -4
-51 -3 -73 31 -16 25 -20 39 -13 46 6 6 11 22 10 36 0 26 0 26 -9 3 -5 -12
-21 -27 -34 -32 -14 -5 -35 -19 -47 -31 -18 -18 -23 -19 -35 -7 -12 12 -12 18
1 45 25 50 10 66 -86 87 -14 3 -33 0 -41 -7z m147 -236 c9 -18 11 -32 5 -36
-11 -7 -42 49 -33 59 10 9 11 8 28 -23z m105 3 c0 -8 -4 -12 -10 -9 -5 3 -10
10 -10 16 0 5 5 9 10 9 6 0 10 -7 10 -16z m150 -224 c0 -5 -4 -10 -10 -10 -5
0 -10 5 -10 10 0 6 5 10 10 10 6 0 10 -4 10 -10z"/>
<path d="M3897 2203 c-4 -3 -7 -11 -7 -17 0 -6 5 -5 12 2 6 6 9 14 7 17 -3 3
-9 2 -12 -2z"/>
<path d="M2604 1948 c-12 -18 -14 -68 -3 -68 5 0 9 5 9 10 0 6 9 10 20 10 11
0 20 5 20 10 0 6 9 10 20 10 11 0 20 -4 20 -10 0 -5 -7 -10 -15 -10 -20 0 -19
-29 0 -36 8 -4 22 -1 29 5 11 9 16 9 22 -1 6 -9 10 -6 14 11 8 34 30 39 30 7
0 -14 3 -26 8 -27 4 0 24 -2 45 -4 25 -3 40 0 43 9 4 11 10 11 30 2 30 -14 32
-30 2 -21 -18 6 -20 4 -12 -5 7 -6 20 -10 30 -8 27 5 27 81 1 86 -10 2 -24 -4
-31 -14 -12 -15 -13 -15 -19 0 -7 17 -47 23 -47 6 0 -5 7 -7 15 -4 8 4 15 2
15 -4 0 -5 -8 -12 -17 -16 -10 -3 -24 -9 -30 -12 -8 -4 -13 2 -13 15 0 12 6
21 13 21 8 0 7 3 -3 10 -19 12 -61 1 -76 -18 -9 -13 -12 -12 -17 7 -3 13 -13
21 -26 21 -12 0 -32 7 -45 16 -20 12 -26 13 -32 2z m26 -18 c0 -5 -5 -10 -11
-10 -5 0 -7 5 -4 10 3 6 8 10 11 10 2 0 4 -4 4 -10z m290 -46 c0 -8 -4 -12
-10 -9 -5 3 -10 10 -10 16 0 5 5 9 10 9 6 0 10 -7 10 -16z m-70 -14 c0 -5 -2
-10 -4 -10 -3 0 -8 5 -11 10 -3 6 -1 10 4 10 6 0 11 -4 11 -10z"/>
<path d="M3637 1953 c-4 -3 -6 -18 -6 -32 1 -21 2 -22 6 -6 3 11 10 26 15 33
11 12 -3 18 -15 5z"/>
<path d="M3410 1940 c0 -5 5 -10 10 -10 6 0 10 5 10 10 0 6 -4 10 -10 10 -5 0
-10 -4 -10 -10z"/>
<path d="M3447 1921 c-4 -20 -3 -39 3 -45 14 -14 16 -6 10 39 l-5 40 -8 -34z"/>
<path d="M3480 1910 c0 -22 4 -40 8 -40 4 0 8 18 9 40 1 22 -2 40 -8 40 -5 0
-9 -18 -9 -40z"/>
<path d="M3570 1921 c0 -33 10 -44 34 -35 10 4 16 18 16 38 l-1 31 -14 -30
c-12 -26 -13 -27 -14 -8 -1 34 -21 38 -21 4z"/>
<path d="M3517 1933 c-4 -3 -7 -17 -7 -30 0 -27 26 -41 43 -24 8 8 6 11 -8 11
-19 1 -19 1 -2 11 23 13 22 39 -1 39 -10 0 -22 -3 -25 -7z"/>
<path d="M3100 1891 c0 -22 5 -43 11 -46 15 -10 16 -5 11 43 -5 53 -22 55 -22
3z"/>
<path d="M3230 1889 c0 -24 4 -38 10 -34 6 3 10 14 10 23 0 13 4 11 16 -7 l17
-24 13 24 c10 19 13 20 14 7 0 -34 20 -18 20 17 0 25 -4 35 -16 35 -9 0 -18
-9 -21 -20 -3 -11 -9 -20 -13 -20 -4 0 -10 9 -13 20 -3 11 -12 20 -21 20 -12
0 -16 -10 -16 -41z"/>
<path d="M2972 1911 c-23 -14 -10 -56 18 -58 23 -2 23 -2 5 6 -11 5 -15 10
-10 10 6 1 16 5 24 10 12 8 12 12 2 25 -15 18 -21 19 -39 7z"/>
<path d="M3043 1913 c-15 -5 -18 -63 -3 -63 6 0 10 11 10 24 0 13 5 26 12 28
7 3 8 7 3 10 -6 3 -16 3 -22 1z"/>
<path d="M3144 1899 c-17 -19 -17 -20 4 -41 17 -17 24 -20 34 -10 9 9 8 12 -7
13 -18 0 -18 1 3 9 27 11 28 26 3 39 -14 8 -23 6 -37 -10z m36 -3 c0 -3 -4 -8
-10 -11 -5 -3 -10 -1 -10 4 0 6 5 11 10 11 6 0 10 -2 10 -4z"/>
<path d="M3344 1898 c-7 -23 20 -53 39 -41 6 4 3 9 -8 13 -18 6 -17 7 3 12 31
8 29 38 -2 38 -17 0 -27 -7 -32 -22z m36 2 c0 -5 -2 -10 -4 -10 -3 0 -8 5 -11
10 -3 6 -1 10 4 10 6 0 11 -4 11 -10z"/>
<path d="M3410 1890 c0 -21 5 -30 16 -30 11 0 14 5 10 16 -3 9 -6 22 -6 30 0
8 -4 14 -10 14 -5 0 -10 -13 -10 -30z"/>
<path d="M3975 1760 c-3 -5 -2 -10 4 -10 5 0 13 5 16 10 3 6 2 10 -4 10 -5 0
-13 -4 -16 -10z"/>
<path d="M2275 1700 c-3 -5 -1 -10 4 -10 6 0 11 5 11 10 0 6 -2 10 -4 10 -3 0
-8 -4 -11 -10z"/>
<path d="M2868 1159 c-20 -11 -25 -41 -5 -33 15 5 41 44 30 44 -5 0 -16 -5
-25 -11z"/>
<path d="M2920 1145 c0 -16 6 -25 15 -25 16 0 19 9 9 34 -9 25 -24 19 -24 -9z"/>
<path d="M3775 1150 c-27 -30 -12 -34 15 -5 13 14 19 25 13 25 -5 0 -18 -9
-28 -20z"/>
<path d="M3166 1005 c-3 -8 -1 -15 4 -15 6 0 10 7 10 15 0 8 -2 15 -4 15 -2 0
-6 -7 -10 -15z"/>
</g>
</svg>
